<?xml version="1.0" standalone="no"?>
<!DOCTYPE svg PUBLIC "-//W3C//DTD SVG 20010904//EN"
 "http://www.w3.org/TR/2001/REC-SVG-20010904/DTD/svg10.dtd">
<svg version="1.0" xmlns="http://www.w3.org/2000/svg"
 width="256.000000pt" height="256.000000pt" viewBox="0 0 256.000000 256.000000"
 preserveAspectRatio="xMidYMid meet">
<metadata>
Created by potrace 1.14, written by Peter Selinger 2001-2017
</metadata>
<g transform="translate(0.000000,256.000000) scale(0.100000,-0.100000)"
fill="#000000" stroke="none">
<path d="M0 1280 l0 -1280 1280 0 1280 0 0 1280 0 1280 -1280 0 -1280 0 0
-1280z m2336 1068 c-35 -82 -848 -1804 -855 -1811 -4 -4 -218 194 -475 439
l-468 447 149 78 c81 43 488 258 903 478 415 220 756 400 758 400 1 1 -4 -14
-12 -31z m-1184 -1719 c-7 -7 -962 -438 -962 -435 0 1 72 153 161 337 89 184
193 399 231 479 l70 145 254 -260 c140 -142 251 -262 246 -266z"/>
<path d="M1396 1655 c-285 -151 -520 -275 -521 -277 -2 -2 118 -119 267 -261
149 -142 274 -255 279 -250 11 11 501 1054 497 1058 -2 2 -237 -120 -522 -270z"/>
<path d="M631 848 c-27 -56 -83 -174 -125 -262 -42 -87 -71 -156 -64 -153 31
12 513 230 517 233 4 4 -257 277 -270 282 -5 2 -31 -43 -58 -100z"/>
</g>
</svg>
